<?xml version="1.0" encoding="utf-8"?>
<!-- Generator: Adobe Illustrator 26.0.2, SVG Export Plug-In . SVG Version: 6.00 Build 0)  -->
<svg version="1.1" id="Capa_1" xmlns="http://www.w3.org/2000/svg" xmlns:xlink="http://www.w3.org/1999/xlink" x="0px" y="0px"
	 viewBox="0 0 200 200" style="enable-background:new 0 0 200 200;" xml:space="preserve">
<style type="text/css">
	.st0{fill:#020203;}
	.st1{fill:#FFFFFF;}
</style>
<g>
	<rect y="0" class="st0" width="200" height="200"/>
	<g>
		<path class="st1" d="M88.92,89.69v36.2H78.43V99.37H66.61v26.52H56.11V99.37H44.29v26.52H33.8v-36.2H88.92z"/>
		<path class="st1" d="M100.62,73.29c3.47,0,6.13,2.66,6.13,6.13c0,3.32-2.81,6.06-6.13,6.06c-3.32,0-6.06-2.73-6.06-6.06
			C94.56,75.95,97.29,73.29,100.62,73.29z M95.37,125.9v-36.2h10.57v36.2H95.37z"/>
		<path class="st1" d="M116.33,94.13c3.47-3.55,7.83-5.32,12.93-5.32c3.77,0,6.87,1.03,9.31,3.18V74.1h10.49v51.79h-10.34v-2.59
			c-2.36,2.29-5.54,3.4-9.46,3.4c-5.1,0-9.46-1.7-12.93-5.17c-3.47-3.47-5.17-8.05-5.17-13.74
			C111.16,102.18,112.86,97.6,116.33,94.13z M138.72,107.79c0-2.73-0.81-5.02-2.44-6.8c-1.55-1.77-3.55-2.66-5.98-2.66
			c-2.44,0-4.43,0.89-6.06,2.66c-1.55,1.77-2.36,4.06-2.36,6.8c0,2.73,0.81,5.02,2.36,6.8c1.63,1.77,3.62,2.66,6.06,2.66
			c2.44,0,4.43-0.89,5.98-2.66C137.9,112.82,138.72,110.53,138.72,107.79z"/>
		<path class="st1" d="M160.07,73.29c3.47,0,6.13,2.66,6.13,6.13c0,3.32-2.81,6.06-6.13,6.06c-3.32,0-6.06-2.73-6.06-6.06
			C154.01,75.95,156.74,73.29,160.07,73.29z M154.82,125.9v-36.2h10.57v36.2H154.82z"/>
	</g>
</g>
</svg>
