<?xml version="1.0" encoding="utf-8"?>
<svg version="1.1" xmlns="http://www.w3.org/2000/svg" x="0px" y="0px"
	 viewBox="0 0 1080 1080" style="enable-background:new 0 0 1080 1080;" xml:space="preserve">
<style type="text/css">
	.st0{fill:#000000;}
	.st1{fill:#FFFFFF;}
</style>
<rect class="st0" width="1080" height="1080"/>
<g>
	<path class="st1" d="M480.15,484.35v195.49H423.5V536.61h-63.83v143.23h-56.65V536.61h-63.83v143.23h-56.65V484.35H480.15z M543.32,395.78c18.75,0,33.11,14.36,33.11,33.11c0,17.95-15.16,32.71-33.11,32.71
		c-17.95,0-32.72-14.76-32.72-32.71C510.61,410.14,525.37,395.78,543.32,395.78z M515,679.84V484.35h57.05v195.49H515z
		M628.19,508.28c18.75-19.15,42.29-28.73,69.82-28.73c20.35,0,37.1,5.59,50.27,17.16v-96.55h56.65v279.67
		h-55.85v-13.96c-12.77,12.37-29.92,18.35-51.07,18.35c-27.53,0-51.07-9.18-69.82-27.93c-18.75-18.75-27.93-43.49-27.93-74.21
		C600.26,551.77,609.44,527.03,628.19,508.28z M749.07,582.09c0-14.76-4.39-27.13-13.17-36.7c-8.38-9.57-19.15-14.36-32.32-14.36
		c-13.17,0-23.94,4.79-32.72,14.36c-8.38,9.57-12.77,21.94-12.77,36.7s4.39,27.13,12.77,36.7c8.78,9.58,19.55,14.36,32.72,14.36
		c13.16,0,23.94-4.79,32.32-14.36C744.68,609.22,749.07,596.85,749.07,582.09z
		M864.36,395.78c18.75,0,33.11,14.36,33.11,33.11c0,17.95-15.16,32.71-33.11,32.71
		c-17.95,0-32.72-14.76-32.72-32.71C831.64,410.14,846.4,395.78,864.36,395.78z M836.03,679.84V484.35h57.05v195.49H836.03z"/>
</g>
</svg>
